<mxfile host="app.diagrams.net" agent="Mozilla/5.0 (Macintosh; Intel Mac OS X 10_15_7) AppleWebKit/537.36 (KHTML, like Gecko) Chrome/131.0.0.0 Safari/537.36" version="26.0.11">
  <diagram name="第 1 页" id="biBTl_rtlfQWN12dwksh">
    <mxGraphModel dx="1799" dy="966" grid="1" gridSize="10" guides="1" tooltips="1" connect="1" arrows="1" fold="1" page="1" pageScale="1" pageWidth="827" pageHeight="1169" math="1" shadow="0">
      <root>
        <mxCell id="0" />
        <mxCell id="1" parent="0" />
        <mxCell id="X_7hW94mpVs03wvkvOVI-5" value="" style="shape=curlyBracket;whiteSpace=wrap;html=1;rounded=1;labelPosition=left;verticalLabelPosition=middle;align=right;verticalAlign=middle;" parent="1" vertex="1">
          <mxGeometry x="290" y="90" width="20" height="260" as="geometry" />
        </mxCell>
        <mxCell id="X_7hW94mpVs03wvkvOVI-6" value="inv_freq_expanded (theta)" style="text;html=1;align=center;verticalAlign=middle;whiteSpace=wrap;rounded=0;" parent="1" vertex="1">
          <mxGeometry x="120" y="180" width="150" height="30" as="geometry" />
        </mxCell>
        <mxCell id="X_7hW94mpVs03wvkvOVI-7" value="$$\theta_0$$" style="text;html=1;align=center;verticalAlign=middle;whiteSpace=wrap;rounded=0;" parent="1" vertex="1">
          <mxGeometry x="310" y="90" width="60" height="30" as="geometry" />
        </mxCell>
        <mxCell id="X_7hW94mpVs03wvkvOVI-8" value="$$\theta_1$$" style="text;html=1;align=center;verticalAlign=middle;whiteSpace=wrap;rounded=0;" parent="1" vertex="1">
          <mxGeometry x="310" y="130" width="60" height="30" as="geometry" />
        </mxCell>
        <mxCell id="X_7hW94mpVs03wvkvOVI-9" value="$$\theta_{d/2}$$" style="text;html=1;align=center;verticalAlign=middle;whiteSpace=wrap;rounded=0;" parent="1" vertex="1">
          <mxGeometry x="310" y="310" width="60" height="30" as="geometry" />
        </mxCell>
        <mxCell id="X_7hW94mpVs03wvkvOVI-10" value="..." style="text;html=1;align=center;verticalAlign=middle;whiteSpace=wrap;rounded=0;" parent="1" vertex="1">
          <mxGeometry x="310" y="220" width="60" height="30" as="geometry" />
        </mxCell>
        <mxCell id="X_7hW94mpVs03wvkvOVI-12" value="" style="shape=curlyBracket;whiteSpace=wrap;html=1;rounded=1;flipH=1;labelPosition=right;verticalLabelPosition=middle;align=left;verticalAlign=middle;" parent="1" vertex="1">
          <mxGeometry x="370" y="90" width="30" height="260" as="geometry" />
        </mxCell>
        <mxCell id="X_7hW94mpVs03wvkvOVI-13" value="(B, d/2, 1)" style="text;html=1;align=center;verticalAlign=middle;whiteSpace=wrap;rounded=0;" parent="1" vertex="1">
          <mxGeometry x="280" y="50" width="60" height="30" as="geometry" />
        </mxCell>
        <mxCell id="X_7hW94mpVs03wvkvOVI-14" value="" style="shape=curlyBracket;whiteSpace=wrap;html=1;rounded=1;labelPosition=left;verticalLabelPosition=middle;align=right;verticalAlign=middle;" parent="1" vertex="1">
          <mxGeometry x="510" y="90" width="20" height="260" as="geometry" />
        </mxCell>
        <mxCell id="X_7hW94mpVs03wvkvOVI-15" value="0" style="text;html=1;align=center;verticalAlign=middle;whiteSpace=wrap;rounded=0;" parent="1" vertex="1">
          <mxGeometry x="530" y="90" width="60" height="30" as="geometry" />
        </mxCell>
        <mxCell id="X_7hW94mpVs03wvkvOVI-16" value="1" style="text;html=1;align=center;verticalAlign=middle;whiteSpace=wrap;rounded=0;" parent="1" vertex="1">
          <mxGeometry x="530" y="130" width="60" height="30" as="geometry" />
        </mxCell>
        <mxCell id="X_7hW94mpVs03wvkvOVI-17" value="S-1" style="text;html=1;align=center;verticalAlign=middle;whiteSpace=wrap;rounded=0;" parent="1" vertex="1">
          <mxGeometry x="530" y="310" width="60" height="30" as="geometry" />
        </mxCell>
        <mxCell id="X_7hW94mpVs03wvkvOVI-18" value="..." style="text;html=1;align=center;verticalAlign=middle;whiteSpace=wrap;rounded=0;" parent="1" vertex="1">
          <mxGeometry x="530" y="220" width="60" height="30" as="geometry" />
        </mxCell>
        <mxCell id="X_7hW94mpVs03wvkvOVI-19" value="" style="shape=curlyBracket;whiteSpace=wrap;html=1;rounded=1;flipH=1;labelPosition=right;verticalLabelPosition=middle;align=left;verticalAlign=middle;" parent="1" vertex="1">
          <mxGeometry x="590" y="90" width="30" height="260" as="geometry" />
        </mxCell>
        <mxCell id="X_7hW94mpVs03wvkvOVI-20" value="(B, 1, S)" style="text;html=1;align=center;verticalAlign=middle;whiteSpace=wrap;rounded=0;" parent="1" vertex="1">
          <mxGeometry x="530" y="50" width="60" height="30" as="geometry" />
        </mxCell>
        <mxCell id="X_7hW94mpVs03wvkvOVI-22" value="position_ids_expanded" style="text;whiteSpace=wrap;" parent="1" vertex="1">
          <mxGeometry x="630" y="190" width="160" height="40" as="geometry" />
        </mxCell>
        <mxCell id="X_7hW94mpVs03wvkvOVI-23" value="" style="shape=flexArrow;endArrow=classic;html=1;rounded=0;" parent="1" edge="1">
          <mxGeometry width="50" height="50" relative="1" as="geometry">
            <mxPoint x="440" y="390" as="sourcePoint" />
            <mxPoint x="440" y="510" as="targetPoint" />
          </mxGeometry>
        </mxCell>
        <mxCell id="X_7hW94mpVs03wvkvOVI-24" value="" style="shape=curlyBracket;whiteSpace=wrap;html=1;rounded=1;labelPosition=left;verticalLabelPosition=middle;align=right;verticalAlign=middle;" parent="1" vertex="1">
          <mxGeometry x="340" y="530" width="20" height="260" as="geometry" />
        </mxCell>
        <mxCell id="X_7hW94mpVs03wvkvOVI-25" value="$$0 * \theta_0 $$" style="text;html=1;align=center;verticalAlign=middle;whiteSpace=wrap;rounded=0;" parent="1" vertex="1">
          <mxGeometry x="370" y="530" width="60" height="30" as="geometry" />
        </mxCell>
        <mxCell id="X_7hW94mpVs03wvkvOVI-28" value="..." style="text;html=1;align=center;verticalAlign=middle;whiteSpace=wrap;rounded=0;" parent="1" vertex="1">
          <mxGeometry x="540" y="530" width="60" height="30" as="geometry" />
        </mxCell>
        <mxCell id="X_7hW94mpVs03wvkvOVI-29" value="" style="shape=curlyBracket;whiteSpace=wrap;html=1;rounded=1;flipH=1;labelPosition=right;verticalLabelPosition=middle;align=left;verticalAlign=middle;" parent="1" vertex="1">
          <mxGeometry x="680" y="530" width="30" height="260" as="geometry" />
        </mxCell>
        <mxCell id="X_7hW94mpVs03wvkvOVI-30" value="(B, S, d/2)" style="text;html=1;align=center;verticalAlign=middle;whiteSpace=wrap;rounded=0;" parent="1" vertex="1">
          <mxGeometry x="500" y="480" width="60" height="30" as="geometry" />
        </mxCell>
        <mxCell id="X_7hW94mpVs03wvkvOVI-34" value="$$0 * \theta_1 $$" style="text;html=1;align=center;verticalAlign=middle;whiteSpace=wrap;rounded=0;" parent="1" vertex="1">
          <mxGeometry x="466" y="530" width="60" height="30" as="geometry" />
        </mxCell>
        <mxCell id="X_7hW94mpVs03wvkvOVI-35" value="$$0 * \theta_{d/2} $$" style="text;html=1;align=center;verticalAlign=middle;whiteSpace=wrap;rounded=0;" parent="1" vertex="1">
          <mxGeometry x="610" y="530" width="60" height="30" as="geometry" />
        </mxCell>
        <mxCell id="X_7hW94mpVs03wvkvOVI-36" value="$$1 * \theta_0 $$" style="text;html=1;align=center;verticalAlign=middle;whiteSpace=wrap;rounded=0;" parent="1" vertex="1">
          <mxGeometry x="374" y="590" width="60" height="30" as="geometry" />
        </mxCell>
        <mxCell id="X_7hW94mpVs03wvkvOVI-37" value="..." style="text;html=1;align=center;verticalAlign=middle;whiteSpace=wrap;rounded=0;" parent="1" vertex="1">
          <mxGeometry x="544" y="590" width="60" height="30" as="geometry" />
        </mxCell>
        <mxCell id="X_7hW94mpVs03wvkvOVI-38" value="$$1 * \theta_1 $$" style="text;html=1;align=center;verticalAlign=middle;whiteSpace=wrap;rounded=0;" parent="1" vertex="1">
          <mxGeometry x="470" y="590" width="60" height="30" as="geometry" />
        </mxCell>
        <mxCell id="X_7hW94mpVs03wvkvOVI-39" value="$$1 * \theta_{d/2} $$" style="text;html=1;align=center;verticalAlign=middle;whiteSpace=wrap;rounded=0;" parent="1" vertex="1">
          <mxGeometry x="614" y="590" width="60" height="30" as="geometry" />
        </mxCell>
        <mxCell id="X_7hW94mpVs03wvkvOVI-40" value="$$(S-1) * \theta_0 $$" style="text;html=1;align=center;verticalAlign=middle;whiteSpace=wrap;rounded=0;" parent="1" vertex="1">
          <mxGeometry x="374" y="750" width="60" height="30" as="geometry" />
        </mxCell>
        <mxCell id="X_7hW94mpVs03wvkvOVI-41" value="..." style="text;html=1;align=center;verticalAlign=middle;whiteSpace=wrap;rounded=0;" parent="1" vertex="1">
          <mxGeometry x="544" y="750" width="60" height="30" as="geometry" />
        </mxCell>
        <mxCell id="X_7hW94mpVs03wvkvOVI-42" value="$$(S-1) * \theta_1 $$" style="text;html=1;align=center;verticalAlign=middle;whiteSpace=wrap;rounded=0;" parent="1" vertex="1">
          <mxGeometry x="470" y="750" width="60" height="30" as="geometry" />
        </mxCell>
        <mxCell id="X_7hW94mpVs03wvkvOVI-43" value="$$(S-1) * \theta_{d/2} $$" style="text;html=1;align=center;verticalAlign=middle;whiteSpace=wrap;rounded=0;" parent="1" vertex="1">
          <mxGeometry x="614" y="750" width="60" height="30" as="geometry" />
        </mxCell>
        <mxCell id="X_7hW94mpVs03wvkvOVI-44" value="..." style="text;html=1;align=center;verticalAlign=middle;whiteSpace=wrap;rounded=0;" parent="1" vertex="1">
          <mxGeometry x="544" y="670" width="60" height="30" as="geometry" />
        </mxCell>
        <mxCell id="X_7hW94mpVs03wvkvOVI-46" value="" style="shape=flexArrow;endArrow=classic;html=1;rounded=0;" parent="1" edge="1">
          <mxGeometry width="50" height="50" relative="1" as="geometry">
            <mxPoint x="440" y="820" as="sourcePoint" />
            <mxPoint x="440" y="940" as="targetPoint" />
          </mxGeometry>
        </mxCell>
        <mxCell id="X_7hW94mpVs03wvkvOVI-47" value="" style="shape=curlyBracket;whiteSpace=wrap;html=1;rounded=1;labelPosition=left;verticalLabelPosition=middle;align=right;verticalAlign=middle;" parent="1" vertex="1">
          <mxGeometry x="180" y="970" width="20" height="260" as="geometry" />
        </mxCell>
        <mxCell id="X_7hW94mpVs03wvkvOVI-48" value="$$0 * \theta_0 $$" style="text;html=1;align=center;verticalAlign=middle;whiteSpace=wrap;rounded=0;" parent="1" vertex="1">
          <mxGeometry x="210" y="970" width="60" height="30" as="geometry" />
        </mxCell>
        <mxCell id="X_7hW94mpVs03wvkvOVI-49" value="..." style="text;html=1;align=center;verticalAlign=middle;whiteSpace=wrap;rounded=0;" parent="1" vertex="1">
          <mxGeometry x="380" y="970" width="60" height="30" as="geometry" />
        </mxCell>
        <mxCell id="X_7hW94mpVs03wvkvOVI-50" value="" style="shape=curlyBracket;whiteSpace=wrap;html=1;rounded=1;flipH=1;labelPosition=right;verticalLabelPosition=middle;align=left;verticalAlign=middle;" parent="1" vertex="1">
          <mxGeometry x="850" y="970" width="30" height="260" as="geometry" />
        </mxCell>
        <mxCell id="X_7hW94mpVs03wvkvOVI-51" value="$$0 * \theta_1 $$" style="text;html=1;align=center;verticalAlign=middle;whiteSpace=wrap;rounded=0;" parent="1" vertex="1">
          <mxGeometry x="306" y="970" width="60" height="30" as="geometry" />
        </mxCell>
        <mxCell id="X_7hW94mpVs03wvkvOVI-52" value="$$0 * \theta_{d/2} $$" style="text;html=1;align=center;verticalAlign=middle;whiteSpace=wrap;rounded=0;" parent="1" vertex="1">
          <mxGeometry x="450" y="970" width="60" height="30" as="geometry" />
        </mxCell>
        <mxCell id="X_7hW94mpVs03wvkvOVI-53" value="$$1 * \theta_0 $$" style="text;html=1;align=center;verticalAlign=middle;whiteSpace=wrap;rounded=0;" parent="1" vertex="1">
          <mxGeometry x="214" y="1030" width="60" height="30" as="geometry" />
        </mxCell>
        <mxCell id="X_7hW94mpVs03wvkvOVI-54" value="..." style="text;html=1;align=center;verticalAlign=middle;whiteSpace=wrap;rounded=0;" parent="1" vertex="1">
          <mxGeometry x="384" y="1030" width="60" height="30" as="geometry" />
        </mxCell>
        <mxCell id="X_7hW94mpVs03wvkvOVI-55" value="$$1 * \theta_1 $$" style="text;html=1;align=center;verticalAlign=middle;whiteSpace=wrap;rounded=0;" parent="1" vertex="1">
          <mxGeometry x="310" y="1030" width="60" height="30" as="geometry" />
        </mxCell>
        <mxCell id="X_7hW94mpVs03wvkvOVI-56" value="$$1 * \theta_{d/2} $$" style="text;html=1;align=center;verticalAlign=middle;whiteSpace=wrap;rounded=0;" parent="1" vertex="1">
          <mxGeometry x="454" y="1030" width="60" height="30" as="geometry" />
        </mxCell>
        <mxCell id="X_7hW94mpVs03wvkvOVI-57" value="$$(S-1) * \theta_0 $$" style="text;html=1;align=center;verticalAlign=middle;whiteSpace=wrap;rounded=0;" parent="1" vertex="1">
          <mxGeometry x="214" y="1190" width="60" height="30" as="geometry" />
        </mxCell>
        <mxCell id="X_7hW94mpVs03wvkvOVI-58" value="..." style="text;html=1;align=center;verticalAlign=middle;whiteSpace=wrap;rounded=0;" parent="1" vertex="1">
          <mxGeometry x="384" y="1190" width="60" height="30" as="geometry" />
        </mxCell>
        <mxCell id="X_7hW94mpVs03wvkvOVI-59" value="$$(S-1) * \theta_1 $$" style="text;html=1;align=center;verticalAlign=middle;whiteSpace=wrap;rounded=0;" parent="1" vertex="1">
          <mxGeometry x="310" y="1190" width="60" height="30" as="geometry" />
        </mxCell>
        <mxCell id="X_7hW94mpVs03wvkvOVI-60" value="$$(S-1) * \theta_{d/2} $$" style="text;html=1;align=center;verticalAlign=middle;whiteSpace=wrap;rounded=0;" parent="1" vertex="1">
          <mxGeometry x="454" y="1190" width="60" height="30" as="geometry" />
        </mxCell>
        <mxCell id="X_7hW94mpVs03wvkvOVI-61" value="..." style="text;html=1;align=center;verticalAlign=middle;whiteSpace=wrap;rounded=0;" parent="1" vertex="1">
          <mxGeometry x="384" y="1110" width="60" height="30" as="geometry" />
        </mxCell>
        <mxCell id="X_7hW94mpVs03wvkvOVI-62" value="$$0 * \theta_0 $$" style="text;html=1;align=center;verticalAlign=middle;whiteSpace=wrap;rounded=0;" parent="1" vertex="1">
          <mxGeometry x="540" y="970" width="60" height="30" as="geometry" />
        </mxCell>
        <mxCell id="X_7hW94mpVs03wvkvOVI-63" value="..." style="text;html=1;align=center;verticalAlign=middle;whiteSpace=wrap;rounded=0;" parent="1" vertex="1">
          <mxGeometry x="710" y="970" width="60" height="30" as="geometry" />
        </mxCell>
        <mxCell id="X_7hW94mpVs03wvkvOVI-64" value="$$0 * \theta_1 $$" style="text;html=1;align=center;verticalAlign=middle;whiteSpace=wrap;rounded=0;" parent="1" vertex="1">
          <mxGeometry x="636" y="970" width="60" height="30" as="geometry" />
        </mxCell>
        <mxCell id="X_7hW94mpVs03wvkvOVI-65" value="$$0 * \theta_{d/2} $$" style="text;html=1;align=center;verticalAlign=middle;whiteSpace=wrap;rounded=0;" parent="1" vertex="1">
          <mxGeometry x="780" y="970" width="60" height="30" as="geometry" />
        </mxCell>
        <mxCell id="X_7hW94mpVs03wvkvOVI-66" value="$$1 * \theta_0 $$" style="text;html=1;align=center;verticalAlign=middle;whiteSpace=wrap;rounded=0;" parent="1" vertex="1">
          <mxGeometry x="544" y="1030" width="60" height="30" as="geometry" />
        </mxCell>
        <mxCell id="X_7hW94mpVs03wvkvOVI-67" value="..." style="text;html=1;align=center;verticalAlign=middle;whiteSpace=wrap;rounded=0;" parent="1" vertex="1">
          <mxGeometry x="714" y="1030" width="60" height="30" as="geometry" />
        </mxCell>
        <mxCell id="X_7hW94mpVs03wvkvOVI-68" value="$$1 * \theta_1 $$" style="text;html=1;align=center;verticalAlign=middle;whiteSpace=wrap;rounded=0;" parent="1" vertex="1">
          <mxGeometry x="640" y="1030" width="60" height="30" as="geometry" />
        </mxCell>
        <mxCell id="X_7hW94mpVs03wvkvOVI-69" value="$$1 * \theta_{d/2} $$" style="text;html=1;align=center;verticalAlign=middle;whiteSpace=wrap;rounded=0;" parent="1" vertex="1">
          <mxGeometry x="784" y="1030" width="60" height="30" as="geometry" />
        </mxCell>
        <mxCell id="X_7hW94mpVs03wvkvOVI-70" value="$$(S-1) * \theta_0 $$" style="text;html=1;align=center;verticalAlign=middle;whiteSpace=wrap;rounded=0;" parent="1" vertex="1">
          <mxGeometry x="544" y="1190" width="60" height="30" as="geometry" />
        </mxCell>
        <mxCell id="X_7hW94mpVs03wvkvOVI-71" value="..." style="text;html=1;align=center;verticalAlign=middle;whiteSpace=wrap;rounded=0;" parent="1" vertex="1">
          <mxGeometry x="714" y="1190" width="60" height="30" as="geometry" />
        </mxCell>
        <mxCell id="X_7hW94mpVs03wvkvOVI-72" value="$$(S-1) * \theta_1 $$" style="text;html=1;align=center;verticalAlign=middle;whiteSpace=wrap;rounded=0;" parent="1" vertex="1">
          <mxGeometry x="640" y="1190" width="60" height="30" as="geometry" />
        </mxCell>
        <mxCell id="X_7hW94mpVs03wvkvOVI-73" value="$$(S-1) * \theta_{d/2} $$" style="text;html=1;align=center;verticalAlign=middle;whiteSpace=wrap;rounded=0;" parent="1" vertex="1">
          <mxGeometry x="784" y="1190" width="60" height="30" as="geometry" />
        </mxCell>
        <mxCell id="X_7hW94mpVs03wvkvOVI-74" value="..." style="text;html=1;align=center;verticalAlign=middle;whiteSpace=wrap;rounded=0;" parent="1" vertex="1">
          <mxGeometry x="714" y="1110" width="60" height="30" as="geometry" />
        </mxCell>
        <mxCell id="X_7hW94mpVs03wvkvOVI-76" value="(B, S, d)" style="text;html=1;align=center;verticalAlign=middle;whiteSpace=wrap;rounded=0;" parent="1" vertex="1">
          <mxGeometry x="510" y="910" width="60" height="30" as="geometry" />
        </mxCell>
        <mxCell id="X_7hW94mpVs03wvkvOVI-77" value="x, (B, S, d)" style="text;html=1;align=center;verticalAlign=middle;whiteSpace=wrap;rounded=0;" parent="1" vertex="1">
          <mxGeometry x="1221" y="490" width="60" height="30" as="geometry" />
        </mxCell>
        <mxCell id="X_7hW94mpVs03wvkvOVI-78" value="" style="shape=curlyBracket;whiteSpace=wrap;html=1;rounded=1;labelPosition=left;verticalLabelPosition=middle;align=right;verticalAlign=middle;" parent="1" vertex="1">
          <mxGeometry x="1060" y="530" width="20" height="260" as="geometry" />
        </mxCell>
        <mxCell id="X_7hW94mpVs03wvkvOVI-79" value="$$x_0^0$$" style="text;html=1;align=center;verticalAlign=middle;whiteSpace=wrap;rounded=0;" parent="1" vertex="1">
          <mxGeometry x="1100" y="530" width="60" height="30" as="geometry" />
        </mxCell>
        <mxCell id="X_7hW94mpVs03wvkvOVI-80" value="$$x_1^0$$" style="text;html=1;align=center;verticalAlign=middle;whiteSpace=wrap;rounded=0;" parent="1" vertex="1">
          <mxGeometry x="1170" y="530" width="60" height="30" as="geometry" />
        </mxCell>
        <mxCell id="X_7hW94mpVs03wvkvOVI-81" value="$$x^0_{d-1}$$" style="text;html=1;align=center;verticalAlign=middle;whiteSpace=wrap;rounded=0;" parent="1" vertex="1">
          <mxGeometry x="1350" y="530" width="60" height="30" as="geometry" />
        </mxCell>
        <mxCell id="X_7hW94mpVs03wvkvOVI-83" value="" style="shape=curlyBracket;whiteSpace=wrap;html=1;rounded=1;flipH=1;labelPosition=right;verticalLabelPosition=middle;align=left;verticalAlign=middle;" parent="1" vertex="1">
          <mxGeometry x="1410" y="530" width="30" height="260" as="geometry" />
        </mxCell>
        <mxCell id="X_7hW94mpVs03wvkvOVI-84" value="" style="shape=flexArrow;endArrow=classic;html=1;rounded=0;" parent="1" edge="1">
          <mxGeometry width="50" height="50" relative="1" as="geometry">
            <mxPoint x="1220" y="820" as="sourcePoint" />
            <mxPoint x="1220" y="930" as="targetPoint" />
          </mxGeometry>
        </mxCell>
        <mxCell id="X_7hW94mpVs03wvkvOVI-85" value="..." style="text;html=1;align=center;verticalAlign=middle;whiteSpace=wrap;rounded=0;" parent="1" vertex="1">
          <mxGeometry x="1270" y="530" width="60" height="30" as="geometry" />
        </mxCell>
        <mxCell id="X_7hW94mpVs03wvkvOVI-86" value="" style="shape=curlyBracket;whiteSpace=wrap;html=1;rounded=1;labelPosition=left;verticalLabelPosition=middle;align=right;verticalAlign=middle;" parent="1" vertex="1">
          <mxGeometry x="960" y="970" width="20" height="260" as="geometry" />
        </mxCell>
        <mxCell id="X_7hW94mpVs03wvkvOVI-87" value="$$x_0^0$$" style="text;html=1;align=center;verticalAlign=middle;whiteSpace=wrap;rounded=0;" parent="1" vertex="1">
          <mxGeometry x="1185" y="970" width="60" height="30" as="geometry" />
        </mxCell>
        <mxCell id="X_7hW94mpVs03wvkvOVI-88" value="$$x_1^0$$" style="text;html=1;align=center;verticalAlign=middle;whiteSpace=wrap;rounded=0;" parent="1" vertex="1">
          <mxGeometry x="1235" y="970" width="60" height="30" as="geometry" />
        </mxCell>
        <mxCell id="X_7hW94mpVs03wvkvOVI-89" value="$$x_{\frac{d}{2}-1}^0$$" style="text;html=1;align=center;verticalAlign=middle;whiteSpace=wrap;rounded=0;" parent="1" vertex="1">
          <mxGeometry x="1345" y="970" width="60" height="30" as="geometry" />
        </mxCell>
        <mxCell id="X_7hW94mpVs03wvkvOVI-91" value="..." style="text;html=1;align=center;verticalAlign=middle;whiteSpace=wrap;rounded=0;" parent="1" vertex="1">
          <mxGeometry x="1285" y="970" width="60" height="30" as="geometry" />
        </mxCell>
        <mxCell id="X_7hW94mpVs03wvkvOVI-95" value="$$-x^0_{d-1}$$" style="text;html=1;align=center;verticalAlign=middle;whiteSpace=wrap;rounded=0;" parent="1" vertex="1">
          <mxGeometry x="1131" y="970" width="60" height="30" as="geometry" />
        </mxCell>
        <mxCell id="X_7hW94mpVs03wvkvOVI-96" value="" style="shape=curlyBracket;whiteSpace=wrap;html=1;rounded=1;flipH=1;labelPosition=right;verticalLabelPosition=middle;align=left;verticalAlign=middle;" parent="1" vertex="1">
          <mxGeometry x="1410" y="970" width="30" height="260" as="geometry" />
        </mxCell>
        <mxCell id="X_7hW94mpVs03wvkvOVI-97" value="..." style="text;html=1;align=center;verticalAlign=middle;whiteSpace=wrap;rounded=0;" parent="1" vertex="1">
          <mxGeometry x="1071" y="970" width="60" height="30" as="geometry" />
        </mxCell>
        <mxCell id="X_7hW94mpVs03wvkvOVI-98" value="$$-x^0_{\frac{d}{2}}$$" style="text;html=1;align=center;verticalAlign=middle;whiteSpace=wrap;rounded=0;" parent="1" vertex="1">
          <mxGeometry x="970" y="970" width="60" height="30" as="geometry" />
        </mxCell>
        <mxCell id="X_7hW94mpVs03wvkvOVI-99" value="$$-x^0_{\frac{d}{2}+1}$$" style="text;html=1;align=center;verticalAlign=middle;whiteSpace=wrap;rounded=0;" parent="1" vertex="1">
          <mxGeometry x="1020" y="970" width="60" height="30" as="geometry" />
        </mxCell>
        <mxCell id="X_7hW94mpVs03wvkvOVI-101" value="" style="shape=curlyBracket;whiteSpace=wrap;html=1;rounded=1;labelPosition=left;verticalLabelPosition=middle;align=right;verticalAlign=middle;" parent="1" vertex="1">
          <mxGeometry x="1550" y="970" width="20" height="260" as="geometry" />
        </mxCell>
        <mxCell id="X_7hW94mpVs03wvkvOVI-102" value="$$x_0$$" style="text;html=1;align=center;verticalAlign=middle;whiteSpace=wrap;rounded=0;" parent="1" vertex="1">
          <mxGeometry x="1650" y="970" width="60" height="30" as="geometry" />
        </mxCell>
        <mxCell id="X_7hW94mpVs03wvkvOVI-103" value="$$x_1$$" style="text;html=1;align=center;verticalAlign=middle;whiteSpace=wrap;rounded=0;" parent="1" vertex="1">
          <mxGeometry x="1700" y="970" width="60" height="30" as="geometry" />
        </mxCell>
        <mxCell id="X_7hW94mpVs03wvkvOVI-107" value="" style="shape=curlyBracket;whiteSpace=wrap;html=1;rounded=1;flipH=1;labelPosition=right;verticalLabelPosition=middle;align=left;verticalAlign=middle;" parent="1" vertex="1">
          <mxGeometry x="1770" y="970" width="30" height="260" as="geometry" />
        </mxCell>
        <mxCell id="X_7hW94mpVs03wvkvOVI-109" value="$$-x_2$$" style="text;html=1;align=center;verticalAlign=middle;whiteSpace=wrap;rounded=0;" parent="1" vertex="1">
          <mxGeometry x="1560" y="970" width="60" height="30" as="geometry" />
        </mxCell>
        <mxCell id="X_7hW94mpVs03wvkvOVI-111" value="$$-x_3$$" style="text;html=1;align=center;verticalAlign=middle;whiteSpace=wrap;rounded=0;" parent="1" vertex="1">
          <mxGeometry x="1610" y="970" width="60" height="30" as="geometry" />
        </mxCell>
        <mxCell id="X_7hW94mpVs03wvkvOVI-113" value="举例，若d=4" style="text;html=1;align=center;verticalAlign=middle;whiteSpace=wrap;rounded=0;fontStyle=0" parent="1" vertex="1">
          <mxGeometry x="1620" y="940" width="80" height="30" as="geometry" />
        </mxCell>
        <mxCell id="X_7hW94mpVs03wvkvOVI-115" value="" style="shape=flexArrow;endArrow=classic;html=1;rounded=0;" parent="1" edge="1">
          <mxGeometry width="50" height="50" relative="1" as="geometry">
            <mxPoint x="450" y="1240" as="sourcePoint" />
            <mxPoint x="450" y="1360" as="targetPoint" />
          </mxGeometry>
        </mxCell>
        <mxCell id="X_7hW94mpVs03wvkvOVI-116" value="" style="shape=curlyBracket;whiteSpace=wrap;html=1;rounded=1;labelPosition=left;verticalLabelPosition=middle;align=right;verticalAlign=middle;" parent="1" vertex="1">
          <mxGeometry x="50" y="1390" width="20" height="260" as="geometry" />
        </mxCell>
        <mxCell id="X_7hW94mpVs03wvkvOVI-117" value="$$cos(0 * \theta_0) $$" style="text;html=1;align=center;verticalAlign=middle;whiteSpace=wrap;rounded=0;" parent="1" vertex="1">
          <mxGeometry x="100" y="1390" width="60" height="30" as="geometry" />
        </mxCell>
        <mxCell id="X_7hW94mpVs03wvkvOVI-118" value="..." style="text;html=1;align=center;verticalAlign=middle;whiteSpace=wrap;rounded=0;" parent="1" vertex="1">
          <mxGeometry x="305" y="1390" width="60" height="30" as="geometry" />
        </mxCell>
        <mxCell id="X_7hW94mpVs03wvkvOVI-119" value="" style="shape=curlyBracket;whiteSpace=wrap;html=1;rounded=1;flipH=1;labelPosition=right;verticalLabelPosition=middle;align=left;verticalAlign=middle;" parent="1" vertex="1">
          <mxGeometry x="860" y="1390" width="30" height="260" as="geometry" />
        </mxCell>
        <mxCell id="X_7hW94mpVs03wvkvOVI-120" value="$$cos(0 * \theta_1) $$" style="text;html=1;align=center;verticalAlign=middle;whiteSpace=wrap;rounded=0;" parent="1" vertex="1">
          <mxGeometry x="215" y="1390" width="60" height="30" as="geometry" />
        </mxCell>
        <mxCell id="X_7hW94mpVs03wvkvOVI-121" value="$$cos(0 * \theta_{d/2} )$$" style="text;html=1;align=center;verticalAlign=middle;whiteSpace=wrap;rounded=0;" parent="1" vertex="1">
          <mxGeometry x="390" y="1390" width="60" height="30" as="geometry" />
        </mxCell>
        <mxCell id="X_7hW94mpVs03wvkvOVI-130" value="..." style="text;html=1;align=center;verticalAlign=middle;whiteSpace=wrap;rounded=0;" parent="1" vertex="1">
          <mxGeometry x="309" y="1530" width="60" height="30" as="geometry" />
        </mxCell>
        <mxCell id="X_7hW94mpVs03wvkvOVI-131" value="$$cos(0 * \theta_0) $$" style="text;html=1;align=center;verticalAlign=middle;whiteSpace=wrap;rounded=0;" parent="1" vertex="1">
          <mxGeometry x="520" y="1390" width="60" height="30" as="geometry" />
        </mxCell>
        <mxCell id="X_7hW94mpVs03wvkvOVI-132" value="..." style="text;html=1;align=center;verticalAlign=middle;whiteSpace=wrap;rounded=0;" parent="1" vertex="1">
          <mxGeometry x="710" y="1390" width="60" height="30" as="geometry" />
        </mxCell>
        <mxCell id="X_7hW94mpVs03wvkvOVI-133" value="$$cos(0 * \theta_1) $$" style="text;html=1;align=center;verticalAlign=middle;whiteSpace=wrap;rounded=0;" parent="1" vertex="1">
          <mxGeometry x="636" y="1390" width="60" height="30" as="geometry" />
        </mxCell>
        <mxCell id="X_7hW94mpVs03wvkvOVI-134" value="$$cos(0 * \theta_{d/2} )$$" style="text;html=1;align=center;verticalAlign=middle;whiteSpace=wrap;rounded=0;" parent="1" vertex="1">
          <mxGeometry x="780" y="1390" width="60" height="30" as="geometry" />
        </mxCell>
        <mxCell id="X_7hW94mpVs03wvkvOVI-143" value="..." style="text;html=1;align=center;verticalAlign=middle;whiteSpace=wrap;rounded=0;" parent="1" vertex="1">
          <mxGeometry x="714" y="1530" width="60" height="30" as="geometry" />
        </mxCell>
        <mxCell id="X_7hW94mpVs03wvkvOVI-144" value="cos, (B, S, d)" style="text;html=1;align=center;verticalAlign=middle;whiteSpace=wrap;rounded=0;" parent="1" vertex="1">
          <mxGeometry x="520" y="1330" width="100" height="30" as="geometry" />
        </mxCell>
        <mxCell id="X_7hW94mpVs03wvkvOVI-145" value="$$cos(1 * \theta_0) $$" style="text;html=1;align=center;verticalAlign=middle;whiteSpace=wrap;rounded=0;" parent="1" vertex="1">
          <mxGeometry x="100" y="1450" width="60" height="30" as="geometry" />
        </mxCell>
        <mxCell id="X_7hW94mpVs03wvkvOVI-146" value="..." style="text;html=1;align=center;verticalAlign=middle;whiteSpace=wrap;rounded=0;" parent="1" vertex="1">
          <mxGeometry x="305" y="1450" width="60" height="30" as="geometry" />
        </mxCell>
        <mxCell id="X_7hW94mpVs03wvkvOVI-147" value="$$cos(1 * \theta_1) $$" style="text;html=1;align=center;verticalAlign=middle;whiteSpace=wrap;rounded=0;" parent="1" vertex="1">
          <mxGeometry x="215" y="1450" width="60" height="30" as="geometry" />
        </mxCell>
        <mxCell id="X_7hW94mpVs03wvkvOVI-148" value="$$cos(1 * \theta_{d/2} )$$" style="text;html=1;align=center;verticalAlign=middle;whiteSpace=wrap;rounded=0;" parent="1" vertex="1">
          <mxGeometry x="390" y="1450" width="60" height="30" as="geometry" />
        </mxCell>
        <mxCell id="X_7hW94mpVs03wvkvOVI-149" value="$$cos(1 * \theta_0) $$" style="text;html=1;align=center;verticalAlign=middle;whiteSpace=wrap;rounded=0;" parent="1" vertex="1">
          <mxGeometry x="520" y="1450" width="60" height="30" as="geometry" />
        </mxCell>
        <mxCell id="X_7hW94mpVs03wvkvOVI-150" value="..." style="text;html=1;align=center;verticalAlign=middle;whiteSpace=wrap;rounded=0;" parent="1" vertex="1">
          <mxGeometry x="710" y="1450" width="60" height="30" as="geometry" />
        </mxCell>
        <mxCell id="X_7hW94mpVs03wvkvOVI-151" value="$$cos(1 * \theta_1) $$" style="text;html=1;align=center;verticalAlign=middle;whiteSpace=wrap;rounded=0;" parent="1" vertex="1">
          <mxGeometry x="636" y="1450" width="60" height="30" as="geometry" />
        </mxCell>
        <mxCell id="X_7hW94mpVs03wvkvOVI-152" value="$$cos(1 * \theta_{d/2} )$$" style="text;html=1;align=center;verticalAlign=middle;whiteSpace=wrap;rounded=0;" parent="1" vertex="1">
          <mxGeometry x="780" y="1450" width="60" height="30" as="geometry" />
        </mxCell>
        <mxCell id="X_7hW94mpVs03wvkvOVI-153" value="$$cos((S-1) * \theta_0) $$" style="text;html=1;align=center;verticalAlign=middle;whiteSpace=wrap;rounded=0;" parent="1" vertex="1">
          <mxGeometry x="105" y="1590" width="60" height="30" as="geometry" />
        </mxCell>
        <mxCell id="X_7hW94mpVs03wvkvOVI-154" value="..." style="text;html=1;align=center;verticalAlign=middle;whiteSpace=wrap;rounded=0;" parent="1" vertex="1">
          <mxGeometry x="310" y="1590" width="60" height="30" as="geometry" />
        </mxCell>
        <mxCell id="X_7hW94mpVs03wvkvOVI-155" value="$$cos((S-1)&amp;nbsp;* \theta_1) $$" style="text;html=1;align=center;verticalAlign=middle;whiteSpace=wrap;rounded=0;" parent="1" vertex="1">
          <mxGeometry x="220" y="1590" width="60" height="30" as="geometry" />
        </mxCell>
        <mxCell id="X_7hW94mpVs03wvkvOVI-156" value="$$cos((S-1)&amp;nbsp;* \theta_{d/2} )$$" style="text;html=1;align=center;verticalAlign=middle;whiteSpace=wrap;rounded=0;" parent="1" vertex="1">
          <mxGeometry x="395" y="1590" width="60" height="30" as="geometry" />
        </mxCell>
        <mxCell id="X_7hW94mpVs03wvkvOVI-157" value="$$cos((S-1)&amp;nbsp;* \theta_0) $$" style="text;html=1;align=center;verticalAlign=middle;whiteSpace=wrap;rounded=0;" parent="1" vertex="1">
          <mxGeometry x="525" y="1590" width="60" height="30" as="geometry" />
        </mxCell>
        <mxCell id="X_7hW94mpVs03wvkvOVI-158" value="..." style="text;html=1;align=center;verticalAlign=middle;whiteSpace=wrap;rounded=0;" parent="1" vertex="1">
          <mxGeometry x="715" y="1590" width="60" height="30" as="geometry" />
        </mxCell>
        <mxCell id="X_7hW94mpVs03wvkvOVI-159" value="$$cos((S-1)&amp;nbsp;* \theta_1) $$" style="text;html=1;align=center;verticalAlign=middle;whiteSpace=wrap;rounded=0;" parent="1" vertex="1">
          <mxGeometry x="641" y="1590" width="60" height="30" as="geometry" />
        </mxCell>
        <mxCell id="X_7hW94mpVs03wvkvOVI-160" value="$$cos((S-1)&amp;nbsp;* \theta_{d/2} )$$" style="text;html=1;align=center;verticalAlign=middle;whiteSpace=wrap;rounded=0;" parent="1" vertex="1">
          <mxGeometry x="785" y="1590" width="60" height="30" as="geometry" />
        </mxCell>
        <mxCell id="X_7hW94mpVs03wvkvOVI-165" value="$$x_0^1$$" style="text;html=1;align=center;verticalAlign=middle;whiteSpace=wrap;rounded=0;" parent="1" vertex="1">
          <mxGeometry x="1185" y="1020" width="60" height="30" as="geometry" />
        </mxCell>
        <mxCell id="X_7hW94mpVs03wvkvOVI-166" value="$$x_1^1$$" style="text;html=1;align=center;verticalAlign=middle;whiteSpace=wrap;rounded=0;" parent="1" vertex="1">
          <mxGeometry x="1235" y="1020" width="60" height="30" as="geometry" />
        </mxCell>
        <mxCell id="X_7hW94mpVs03wvkvOVI-167" value="$$x_{\frac{d}{2}-1}^1$$" style="text;html=1;align=center;verticalAlign=middle;whiteSpace=wrap;rounded=0;" parent="1" vertex="1">
          <mxGeometry x="1345" y="1020" width="60" height="30" as="geometry" />
        </mxCell>
        <mxCell id="X_7hW94mpVs03wvkvOVI-168" value="..." style="text;html=1;align=center;verticalAlign=middle;whiteSpace=wrap;rounded=0;" parent="1" vertex="1">
          <mxGeometry x="1285" y="1020" width="60" height="30" as="geometry" />
        </mxCell>
        <mxCell id="X_7hW94mpVs03wvkvOVI-169" value="$$-x^1_{d-1}$$" style="text;html=1;align=center;verticalAlign=middle;whiteSpace=wrap;rounded=0;" parent="1" vertex="1">
          <mxGeometry x="1131" y="1020" width="60" height="30" as="geometry" />
        </mxCell>
        <mxCell id="X_7hW94mpVs03wvkvOVI-170" value="..." style="text;html=1;align=center;verticalAlign=middle;whiteSpace=wrap;rounded=0;" parent="1" vertex="1">
          <mxGeometry x="1071" y="1020" width="60" height="30" as="geometry" />
        </mxCell>
        <mxCell id="X_7hW94mpVs03wvkvOVI-171" value="$$-x^1_{\frac{d}{2}}$$" style="text;html=1;align=center;verticalAlign=middle;whiteSpace=wrap;rounded=0;" parent="1" vertex="1">
          <mxGeometry x="970" y="1020" width="60" height="30" as="geometry" />
        </mxCell>
        <mxCell id="X_7hW94mpVs03wvkvOVI-172" value="$$-x^1_{\frac{d}{2}+1}$$" style="text;html=1;align=center;verticalAlign=middle;whiteSpace=wrap;rounded=0;" parent="1" vertex="1">
          <mxGeometry x="1020" y="1020" width="60" height="30" as="geometry" />
        </mxCell>
        <mxCell id="X_7hW94mpVs03wvkvOVI-173" value="" style="shape=curlyBracket;whiteSpace=wrap;html=1;rounded=1;labelPosition=left;verticalLabelPosition=middle;align=right;verticalAlign=middle;" parent="1" vertex="1">
          <mxGeometry x="60" y="1760" width="20" height="260" as="geometry" />
        </mxCell>
        <mxCell id="X_7hW94mpVs03wvkvOVI-174" value="$$sin(0 * \theta_0) $$" style="text;html=1;align=center;verticalAlign=middle;whiteSpace=wrap;rounded=0;" parent="1" vertex="1">
          <mxGeometry x="110" y="1760" width="60" height="30" as="geometry" />
        </mxCell>
        <mxCell id="X_7hW94mpVs03wvkvOVI-175" value="..." style="text;html=1;align=center;verticalAlign=middle;whiteSpace=wrap;rounded=0;" parent="1" vertex="1">
          <mxGeometry x="315" y="1760" width="60" height="30" as="geometry" />
        </mxCell>
        <mxCell id="X_7hW94mpVs03wvkvOVI-176" value="" style="shape=curlyBracket;whiteSpace=wrap;html=1;rounded=1;flipH=1;labelPosition=right;verticalLabelPosition=middle;align=left;verticalAlign=middle;" parent="1" vertex="1">
          <mxGeometry x="870" y="1760" width="30" height="260" as="geometry" />
        </mxCell>
        <mxCell id="X_7hW94mpVs03wvkvOVI-177" value="$$sin(0 * \theta_1) $$" style="text;html=1;align=center;verticalAlign=middle;whiteSpace=wrap;rounded=0;" parent="1" vertex="1">
          <mxGeometry x="225" y="1760" width="60" height="30" as="geometry" />
        </mxCell>
        <mxCell id="X_7hW94mpVs03wvkvOVI-178" value="$$sin(0 * \theta_{d/2} )$$" style="text;html=1;align=center;verticalAlign=middle;whiteSpace=wrap;rounded=0;" parent="1" vertex="1">
          <mxGeometry x="400" y="1760" width="60" height="30" as="geometry" />
        </mxCell>
        <mxCell id="X_7hW94mpVs03wvkvOVI-179" value="..." style="text;html=1;align=center;verticalAlign=middle;whiteSpace=wrap;rounded=0;" parent="1" vertex="1">
          <mxGeometry x="319" y="1900" width="60" height="30" as="geometry" />
        </mxCell>
        <mxCell id="X_7hW94mpVs03wvkvOVI-180" value="$$sin(0 * \theta_0) $$" style="text;html=1;align=center;verticalAlign=middle;whiteSpace=wrap;rounded=0;" parent="1" vertex="1">
          <mxGeometry x="530" y="1760" width="60" height="30" as="geometry" />
        </mxCell>
        <mxCell id="X_7hW94mpVs03wvkvOVI-181" value="..." style="text;html=1;align=center;verticalAlign=middle;whiteSpace=wrap;rounded=0;" parent="1" vertex="1">
          <mxGeometry x="720" y="1760" width="60" height="30" as="geometry" />
        </mxCell>
        <mxCell id="X_7hW94mpVs03wvkvOVI-182" value="$$sin(0 * \theta_1) $$" style="text;html=1;align=center;verticalAlign=middle;whiteSpace=wrap;rounded=0;" parent="1" vertex="1">
          <mxGeometry x="646" y="1760" width="60" height="30" as="geometry" />
        </mxCell>
        <mxCell id="X_7hW94mpVs03wvkvOVI-183" value="$$sin(0 * \theta_{d/2} )$$" style="text;html=1;align=center;verticalAlign=middle;whiteSpace=wrap;rounded=0;" parent="1" vertex="1">
          <mxGeometry x="790" y="1760" width="60" height="30" as="geometry" />
        </mxCell>
        <mxCell id="X_7hW94mpVs03wvkvOVI-184" value="..." style="text;html=1;align=center;verticalAlign=middle;whiteSpace=wrap;rounded=0;" parent="1" vertex="1">
          <mxGeometry x="724" y="1900" width="60" height="30" as="geometry" />
        </mxCell>
        <mxCell id="X_7hW94mpVs03wvkvOVI-185" value="$$sin(1 * \theta_0) $$" style="text;html=1;align=center;verticalAlign=middle;whiteSpace=wrap;rounded=0;" parent="1" vertex="1">
          <mxGeometry x="110" y="1820" width="60" height="30" as="geometry" />
        </mxCell>
        <mxCell id="X_7hW94mpVs03wvkvOVI-186" value="..." style="text;html=1;align=center;verticalAlign=middle;whiteSpace=wrap;rounded=0;" parent="1" vertex="1">
          <mxGeometry x="315" y="1820" width="60" height="30" as="geometry" />
        </mxCell>
        <mxCell id="X_7hW94mpVs03wvkvOVI-187" value="$$sin(1 * \theta_1) $$" style="text;html=1;align=center;verticalAlign=middle;whiteSpace=wrap;rounded=0;" parent="1" vertex="1">
          <mxGeometry x="225" y="1820" width="60" height="30" as="geometry" />
        </mxCell>
        <mxCell id="X_7hW94mpVs03wvkvOVI-188" value="$$sin(1 * \theta_{d/2} )$$" style="text;html=1;align=center;verticalAlign=middle;whiteSpace=wrap;rounded=0;" parent="1" vertex="1">
          <mxGeometry x="400" y="1820" width="60" height="30" as="geometry" />
        </mxCell>
        <mxCell id="X_7hW94mpVs03wvkvOVI-189" value="$$sin(1 * \theta_0) $$" style="text;html=1;align=center;verticalAlign=middle;whiteSpace=wrap;rounded=0;" parent="1" vertex="1">
          <mxGeometry x="530" y="1820" width="60" height="30" as="geometry" />
        </mxCell>
        <mxCell id="X_7hW94mpVs03wvkvOVI-190" value="..." style="text;html=1;align=center;verticalAlign=middle;whiteSpace=wrap;rounded=0;" parent="1" vertex="1">
          <mxGeometry x="720" y="1820" width="60" height="30" as="geometry" />
        </mxCell>
        <mxCell id="X_7hW94mpVs03wvkvOVI-191" value="$$sin(1 * \theta_1) $$" style="text;html=1;align=center;verticalAlign=middle;whiteSpace=wrap;rounded=0;" parent="1" vertex="1">
          <mxGeometry x="646" y="1820" width="60" height="30" as="geometry" />
        </mxCell>
        <mxCell id="X_7hW94mpVs03wvkvOVI-192" value="$$sin(1 * \theta_{d/2} )$$" style="text;html=1;align=center;verticalAlign=middle;whiteSpace=wrap;rounded=0;" parent="1" vertex="1">
          <mxGeometry x="790" y="1820" width="60" height="30" as="geometry" />
        </mxCell>
        <mxCell id="X_7hW94mpVs03wvkvOVI-193" value="$$sin((S-1) * \theta_0) $$" style="text;html=1;align=center;verticalAlign=middle;whiteSpace=wrap;rounded=0;" parent="1" vertex="1">
          <mxGeometry x="115" y="1960" width="60" height="30" as="geometry" />
        </mxCell>
        <mxCell id="X_7hW94mpVs03wvkvOVI-194" value="..." style="text;html=1;align=center;verticalAlign=middle;whiteSpace=wrap;rounded=0;" parent="1" vertex="1">
          <mxGeometry x="320" y="1960" width="60" height="30" as="geometry" />
        </mxCell>
        <mxCell id="X_7hW94mpVs03wvkvOVI-195" value="$$sin((S-1)&amp;nbsp;* \theta_1) $$" style="text;html=1;align=center;verticalAlign=middle;whiteSpace=wrap;rounded=0;" parent="1" vertex="1">
          <mxGeometry x="230" y="1960" width="60" height="30" as="geometry" />
        </mxCell>
        <mxCell id="X_7hW94mpVs03wvkvOVI-196" value="$$sin((S-1)&amp;nbsp;* \theta_{d/2} )$$" style="text;html=1;align=center;verticalAlign=middle;whiteSpace=wrap;rounded=0;" parent="1" vertex="1">
          <mxGeometry x="405" y="1960" width="60" height="30" as="geometry" />
        </mxCell>
        <mxCell id="X_7hW94mpVs03wvkvOVI-197" value="$$sin((S-1)&amp;nbsp;* \theta_0) $$" style="text;html=1;align=center;verticalAlign=middle;whiteSpace=wrap;rounded=0;" parent="1" vertex="1">
          <mxGeometry x="535" y="1960" width="60" height="30" as="geometry" />
        </mxCell>
        <mxCell id="X_7hW94mpVs03wvkvOVI-198" value="..." style="text;html=1;align=center;verticalAlign=middle;whiteSpace=wrap;rounded=0;" parent="1" vertex="1">
          <mxGeometry x="725" y="1960" width="60" height="30" as="geometry" />
        </mxCell>
        <mxCell id="X_7hW94mpVs03wvkvOVI-199" value="$$sin((S-1)&amp;nbsp;* \theta_1) $$" style="text;html=1;align=center;verticalAlign=middle;whiteSpace=wrap;rounded=0;" parent="1" vertex="1">
          <mxGeometry x="651" y="1960" width="60" height="30" as="geometry" />
        </mxCell>
        <mxCell id="X_7hW94mpVs03wvkvOVI-200" value="$$sin((S-1)&amp;nbsp;* \theta_{d/2} )$$" style="text;html=1;align=center;verticalAlign=middle;whiteSpace=wrap;rounded=0;" parent="1" vertex="1">
          <mxGeometry x="795" y="1960" width="60" height="30" as="geometry" />
        </mxCell>
        <mxCell id="X_7hW94mpVs03wvkvOVI-229" value="sin, (B, S, d)" style="text;html=1;align=center;verticalAlign=middle;whiteSpace=wrap;rounded=0;" parent="1" vertex="1">
          <mxGeometry x="495" y="1710" width="100" height="30" as="geometry" />
        </mxCell>
        <mxCell id="X_7hW94mpVs03wvkvOVI-230" value="" style="shape=flexArrow;endArrow=classic;html=1;rounded=0;" parent="1" edge="1">
          <mxGeometry width="50" height="50" relative="1" as="geometry">
            <mxPoint x="880" y="2090" as="sourcePoint" />
            <mxPoint x="880" y="2210" as="targetPoint" />
          </mxGeometry>
        </mxCell>
        <mxCell id="X_7hW94mpVs03wvkvOVI-232" value="(x * cos) + (rotate_half(x) * sin)" style="text;whiteSpace=wrap;" parent="1" vertex="1">
          <mxGeometry x="920" y="2130" width="200" height="40" as="geometry" />
        </mxCell>
        <mxCell id="X_7hW94mpVs03wvkvOVI-233" value="" style="shape=curlyBracket;whiteSpace=wrap;html=1;rounded=1;labelPosition=left;verticalLabelPosition=middle;align=right;verticalAlign=middle;" parent="1" vertex="1">
          <mxGeometry x="309" y="2230" width="20" height="260" as="geometry" />
        </mxCell>
        <mxCell id="X_7hW94mpVs03wvkvOVI-234" value="$$cos(0 * \theta_0)x^0_0 -sin(0 * \theta_0)x^0_{\frac{d}{2}}&amp;nbsp;&amp;nbsp;$$" style="text;html=1;align=center;verticalAlign=middle;whiteSpace=wrap;rounded=0;fillColor=#fff2cc;strokeColor=#d6b656;" parent="1" vertex="1">
          <mxGeometry x="360" y="2230" width="190" height="30" as="geometry" />
        </mxCell>
        <mxCell id="X_7hW94mpVs03wvkvOVI-236" value="" style="shape=curlyBracket;whiteSpace=wrap;html=1;rounded=1;flipH=1;labelPosition=right;verticalLabelPosition=middle;align=left;verticalAlign=middle;" parent="1" vertex="1">
          <mxGeometry x="1431" y="2230" width="30" height="260" as="geometry" />
        </mxCell>
        <mxCell id="X_7hW94mpVs03wvkvOVI-264" value="$$cos(0 * \theta_1)x^0_0 - sin(0 * \theta_1) x^0_{\frac{d}{2} + 1}$$" style="text;html=1;align=center;verticalAlign=middle;whiteSpace=wrap;rounded=0;fillColor=#d5e8d4;strokeColor=#82b366;" parent="1" vertex="1">
          <mxGeometry x="570" y="2230" width="190" height="30" as="geometry" />
        </mxCell>
        <mxCell id="X_7hW94mpVs03wvkvOVI-266" value="$$cos(0 * \theta_0)x^0_{\frac{d}{2}} + sin(0 * \theta_0) x^0_{0}&amp;nbsp;$$" style="text;html=1;align=center;verticalAlign=middle;whiteSpace=wrap;rounded=0;fillColor=#fff2cc;strokeColor=#d6b656;" parent="1" vertex="1">
          <mxGeometry x="910" y="2230" width="190" height="30" as="geometry" />
        </mxCell>
        <mxCell id="X_7hW94mpVs03wvkvOVI-268" value="$$cos(0 * \theta_1)x^0_{\frac{d}{2}+1} + sin(0 * \theta_1) x^0_{1}&amp;nbsp;$$" style="text;html=1;align=center;verticalAlign=middle;whiteSpace=wrap;rounded=0;fillColor=#d5e8d4;strokeColor=#82b366;" parent="1" vertex="1">
          <mxGeometry x="1146" y="2230" width="190" height="30" as="geometry" />
        </mxCell>
        <mxCell id="X_7hW94mpVs03wvkvOVI-269" value="..." style="text;html=1;align=center;verticalAlign=middle;whiteSpace=wrap;rounded=0;" parent="1" vertex="1">
          <mxGeometry x="810" y="2230" width="60" height="30" as="geometry" />
        </mxCell>
        <mxCell id="X_7hW94mpVs03wvkvOVI-270" value="..." style="text;html=1;align=center;verticalAlign=middle;whiteSpace=wrap;rounded=0;" parent="1" vertex="1">
          <mxGeometry x="1350" y="2230" width="60" height="30" as="geometry" />
        </mxCell>
        <mxCell id="X_7hW94mpVs03wvkvOVI-282" value="相隔 d/2 的feature unit是一组rope" style="text;html=1;align=center;verticalAlign=middle;whiteSpace=wrap;rounded=0;" parent="1" vertex="1">
          <mxGeometry x="474" y="2190" width="206" height="20" as="geometry" />
        </mxCell>
        <mxCell id="SpaDGzxN2kwc4XPVR8rR-1" value="" style="shape=curlyBracket;whiteSpace=wrap;html=1;rounded=1;labelPosition=left;verticalLabelPosition=middle;align=right;verticalAlign=middle;" vertex="1" parent="1">
          <mxGeometry x="315" y="2670" width="20" height="450" as="geometry" />
        </mxCell>
        <mxCell id="SpaDGzxN2kwc4XPVR8rR-5" value="&lt;meta charset=&quot;utf-8&quot;&gt;&lt;span style=&quot;color: rgb(51, 51, 51); font-family: Helvetica; font-size: 12px; font-style: normal; font-variant-ligatures: normal; font-variant-caps: normal; font-weight: 400; letter-spacing: normal; orphans: 2; text-align: center; text-indent: 0px; text-transform: none; widows: 2; word-spacing: 0px; -webkit-text-stroke-width: 0px; white-space: normal; background-color: rgb(251, 251, 251); text-decoration-thickness: initial; text-decoration-style: initial; text-decoration-color: initial; display: inline !important; float: none;&quot;&gt;$$x_1$$&lt;/span&gt;" style="text;html=1;align=center;verticalAlign=middle;whiteSpace=wrap;rounded=0;" vertex="1" parent="1">
          <mxGeometry x="340" y="2670" width="60" height="30" as="geometry" />
        </mxCell>
        <mxCell id="SpaDGzxN2kwc4XPVR8rR-6" value="&lt;span style=&quot;color: rgb(51, 51, 51); font-family: Helvetica; font-size: 12px; font-style: normal; font-variant-ligatures: normal; font-variant-caps: normal; font-weight: 400; letter-spacing: normal; orphans: 2; text-align: center; text-indent: 0px; text-transform: none; widows: 2; word-spacing: 0px; -webkit-text-stroke-width: 0px; white-space: normal; background-color: rgb(251, 251, 251); text-decoration-thickness: initial; text-decoration-style: initial; text-decoration-color: initial; float: none; display: inline !important;&quot;&gt;$$x_2$$&lt;/span&gt;" style="text;html=1;align=center;verticalAlign=middle;whiteSpace=wrap;rounded=0;" vertex="1" parent="1">
          <mxGeometry x="340" y="2710" width="60" height="30" as="geometry" />
        </mxCell>
        <mxCell id="SpaDGzxN2kwc4XPVR8rR-7" value="" style="shape=curlyBracket;whiteSpace=wrap;html=1;rounded=1;flipH=1;labelPosition=right;verticalLabelPosition=middle;align=left;verticalAlign=middle;" vertex="1" parent="1">
          <mxGeometry x="404" y="2670" width="30" height="450" as="geometry" />
        </mxCell>
        <mxCell id="SpaDGzxN2kwc4XPVR8rR-8" value="" style="shape=curlyBracket;whiteSpace=wrap;html=1;rounded=1;labelPosition=left;verticalLabelPosition=middle;align=right;verticalAlign=middle;" vertex="1" parent="1">
          <mxGeometry x="470" y="2670" width="20" height="450" as="geometry" />
        </mxCell>
        <mxCell id="SpaDGzxN2kwc4XPVR8rR-9" value="&lt;span style=&quot;color: rgb(0, 0, 0); font-family: Helvetica; font-size: 12px; font-style: normal; font-variant-ligatures: normal; font-variant-caps: normal; font-weight: 400; letter-spacing: normal; orphans: 2; text-align: center; text-indent: 0px; text-transform: none; widows: 2; word-spacing: 0px; -webkit-text-stroke-width: 0px; white-space: normal; background-color: rgb(251, 251, 251); text-decoration-thickness: initial; text-decoration-style: initial; text-decoration-color: initial; float: none; display: inline !important;&quot;&gt;$$cos(m \theta_1)$$&lt;/span&gt;" style="text;whiteSpace=wrap;html=1;" vertex="1" parent="1">
          <mxGeometry x="494" y="2665" width="90" height="40" as="geometry" />
        </mxCell>
        <mxCell id="SpaDGzxN2kwc4XPVR8rR-10" value="&lt;span style=&quot;color: rgb(0, 0, 0); font-family: Helvetica; font-size: 12px; font-style: normal; font-variant-ligatures: normal; font-variant-caps: normal; font-weight: 400; letter-spacing: normal; orphans: 2; text-align: center; text-indent: 0px; text-transform: none; widows: 2; word-spacing: 0px; -webkit-text-stroke-width: 0px; white-space: normal; background-color: rgb(251, 251, 251); text-decoration-thickness: initial; text-decoration-style: initial; text-decoration-color: initial; float: none; display: inline !important;&quot;&gt;$$cos(m \theta_2)$$&lt;/span&gt;" style="text;whiteSpace=wrap;html=1;" vertex="1" parent="1">
          <mxGeometry x="494" y="2700" width="90" height="40" as="geometry" />
        </mxCell>
        <mxCell id="SpaDGzxN2kwc4XPVR8rR-13" value="&lt;span style=&quot;color: rgb(51, 51, 51); font-family: Helvetica; font-size: 12px; font-style: normal; font-variant-ligatures: normal; font-variant-caps: normal; font-weight: 400; letter-spacing: normal; orphans: 2; text-align: center; text-indent: 0px; text-transform: none; widows: 2; word-spacing: 0px; -webkit-text-stroke-width: 0px; white-space: normal; background-color: rgb(251, 251, 251); text-decoration-thickness: initial; text-decoration-style: initial; text-decoration-color: initial; float: none; display: inline !important;&quot;&gt;$$x_{d/2 + 1}$$&lt;/span&gt;" style="text;html=1;align=center;verticalAlign=middle;whiteSpace=wrap;rounded=0;" vertex="1" parent="1">
          <mxGeometry x="340" y="2888" width="60" height="30" as="geometry" />
        </mxCell>
        <mxCell id="SpaDGzxN2kwc4XPVR8rR-16" value="&lt;span style=&quot;color: rgb(51, 51, 51); font-family: Helvetica; font-size: 12px; font-style: normal; font-variant-ligatures: normal; font-variant-caps: normal; font-weight: 400; letter-spacing: normal; orphans: 2; text-align: center; text-indent: 0px; text-transform: none; widows: 2; word-spacing: 0px; -webkit-text-stroke-width: 0px; white-space: normal; background-color: rgb(251, 251, 251); text-decoration-thickness: initial; text-decoration-style: initial; text-decoration-color: initial; float: none; display: inline !important;&quot;&gt;$$x_{d/2}$$&lt;/span&gt;" style="text;html=1;align=center;verticalAlign=middle;whiteSpace=wrap;rounded=0;" vertex="1" parent="1">
          <mxGeometry x="340" y="2850" width="60" height="30" as="geometry" />
        </mxCell>
        <mxCell id="SpaDGzxN2kwc4XPVR8rR-17" value="&lt;span style=&quot;color: rgb(0, 0, 0); font-family: Helvetica; font-size: 12px; font-style: normal; font-variant-ligatures: normal; font-variant-caps: normal; font-weight: 400; letter-spacing: normal; orphans: 2; text-align: center; text-indent: 0px; text-transform: none; widows: 2; word-spacing: 0px; -webkit-text-stroke-width: 0px; white-space: normal; background-color: rgb(251, 251, 251); text-decoration-thickness: initial; text-decoration-style: initial; text-decoration-color: initial; float: none; display: inline !important;&quot;&gt;$$cos(m \theta_1)$$&lt;/span&gt;" style="text;whiteSpace=wrap;html=1;" vertex="1" parent="1">
          <mxGeometry x="490" y="2880" width="90" height="40" as="geometry" />
        </mxCell>
        <mxCell id="SpaDGzxN2kwc4XPVR8rR-18" value="&lt;span style=&quot;color: rgb(0, 0, 0); font-family: Helvetica; font-size: 12px; font-style: normal; font-variant-ligatures: normal; font-variant-caps: normal; font-weight: 400; letter-spacing: normal; orphans: 2; text-align: center; text-indent: 0px; text-transform: none; widows: 2; word-spacing: 0px; -webkit-text-stroke-width: 0px; white-space: normal; background-color: rgb(251, 251, 251); text-decoration-thickness: initial; text-decoration-style: initial; text-decoration-color: initial; float: none; display: inline !important;&quot;&gt;$$cos(m \theta_2)$$&lt;/span&gt;" style="text;whiteSpace=wrap;html=1;" vertex="1" parent="1">
          <mxGeometry x="490" y="2915" width="90" height="40" as="geometry" />
        </mxCell>
        <mxCell id="SpaDGzxN2kwc4XPVR8rR-19" value="&lt;span style=&quot;color: rgb(0, 0, 0); font-family: Helvetica; font-size: 12px; font-style: normal; font-variant-ligatures: normal; font-variant-caps: normal; font-weight: 400; letter-spacing: normal; orphans: 2; text-align: center; text-indent: 0px; text-transform: none; widows: 2; word-spacing: 0px; -webkit-text-stroke-width: 0px; white-space: normal; background-color: rgb(251, 251, 251); text-decoration-thickness: initial; text-decoration-style: initial; text-decoration-color: initial; float: none; display: inline !important;&quot;&gt;$$cos(m \theta_{d/2})$$&lt;/span&gt;" style="text;whiteSpace=wrap;html=1;" vertex="1" parent="1">
          <mxGeometry x="490" y="2845" width="90" height="40" as="geometry" />
        </mxCell>
        <mxCell id="SpaDGzxN2kwc4XPVR8rR-20" value="" style="shape=curlyBracket;whiteSpace=wrap;html=1;rounded=1;flipH=1;labelPosition=right;verticalLabelPosition=middle;align=left;verticalAlign=middle;" vertex="1" parent="1">
          <mxGeometry x="564" y="2670" width="30" height="450" as="geometry" />
        </mxCell>
        <mxCell id="SpaDGzxN2kwc4XPVR8rR-21" value="" style="shape=curlyBracket;whiteSpace=wrap;html=1;rounded=1;labelPosition=left;verticalLabelPosition=middle;align=right;verticalAlign=middle;" vertex="1" parent="1">
          <mxGeometry x="736" y="2670" width="20" height="450" as="geometry" />
        </mxCell>
        <mxCell id="SpaDGzxN2kwc4XPVR8rR-24" value="" style="shape=curlyBracket;whiteSpace=wrap;html=1;rounded=1;flipH=1;labelPosition=right;verticalLabelPosition=middle;align=left;verticalAlign=middle;" vertex="1" parent="1">
          <mxGeometry x="825" y="2670" width="30" height="450" as="geometry" />
        </mxCell>
        <mxCell id="SpaDGzxN2kwc4XPVR8rR-25" value="&lt;meta charset=&quot;utf-8&quot;&gt;&lt;span style=&quot;color: rgb(51, 51, 51); font-family: Helvetica; font-size: 12px; font-style: normal; font-variant-ligatures: normal; font-variant-caps: normal; font-weight: 400; letter-spacing: normal; orphans: 2; text-align: center; text-indent: 0px; text-transform: none; widows: 2; word-spacing: 0px; -webkit-text-stroke-width: 0px; white-space: normal; background-color: rgb(251, 251, 251); text-decoration-thickness: initial; text-decoration-style: initial; text-decoration-color: initial; display: inline !important; float: none;&quot;&gt;$$x_1$$&lt;/span&gt;" style="text;html=1;align=center;verticalAlign=middle;whiteSpace=wrap;rounded=0;" vertex="1" parent="1">
          <mxGeometry x="761" y="2888" width="60" height="30" as="geometry" />
        </mxCell>
        <mxCell id="SpaDGzxN2kwc4XPVR8rR-26" value="&lt;span style=&quot;color: rgb(51, 51, 51); font-family: Helvetica; font-size: 12px; font-style: normal; font-variant-ligatures: normal; font-variant-caps: normal; font-weight: 400; letter-spacing: normal; orphans: 2; text-align: center; text-indent: 0px; text-transform: none; widows: 2; word-spacing: 0px; -webkit-text-stroke-width: 0px; white-space: normal; background-color: rgb(251, 251, 251); text-decoration-thickness: initial; text-decoration-style: initial; text-decoration-color: initial; float: none; display: inline !important;&quot;&gt;$$x_2$$&lt;/span&gt;" style="text;html=1;align=center;verticalAlign=middle;whiteSpace=wrap;rounded=0;" vertex="1" parent="1">
          <mxGeometry x="761" y="2928" width="60" height="30" as="geometry" />
        </mxCell>
        <mxCell id="SpaDGzxN2kwc4XPVR8rR-27" value="&lt;span style=&quot;color: rgb(51, 51, 51); font-family: Helvetica; font-size: 12px; font-style: normal; font-variant-ligatures: normal; font-variant-caps: normal; font-weight: 400; letter-spacing: normal; orphans: 2; text-align: center; text-indent: 0px; text-transform: none; widows: 2; word-spacing: 0px; -webkit-text-stroke-width: 0px; white-space: normal; background-color: rgb(251, 251, 251); text-decoration-thickness: initial; text-decoration-style: initial; text-decoration-color: initial; float: none; display: inline !important;&quot;&gt;$$-x_d$$&lt;/span&gt;" style="text;html=1;align=center;verticalAlign=middle;whiteSpace=wrap;rounded=0;" vertex="1" parent="1">
          <mxGeometry x="761" y="2850" width="60" height="30" as="geometry" />
        </mxCell>
        <mxCell id="SpaDGzxN2kwc4XPVR8rR-28" value="&lt;span style=&quot;color: rgb(51, 51, 51); font-family: Helvetica; font-size: 12px; font-style: normal; font-variant-ligatures: normal; font-variant-caps: normal; font-weight: 400; letter-spacing: normal; orphans: 2; text-align: center; text-indent: 0px; text-transform: none; widows: 2; word-spacing: 0px; -webkit-text-stroke-width: 0px; white-space: normal; background-color: rgb(251, 251, 251); text-decoration-thickness: initial; text-decoration-style: initial; text-decoration-color: initial; float: none; display: inline !important;&quot;&gt;$$x_{d/2 + 2}$$&lt;/span&gt;" style="text;html=1;align=center;verticalAlign=middle;whiteSpace=wrap;rounded=0;" vertex="1" parent="1">
          <mxGeometry x="340" y="2923" width="60" height="30" as="geometry" />
        </mxCell>
        <mxCell id="SpaDGzxN2kwc4XPVR8rR-29" value="&lt;span style=&quot;color: rgb(51, 51, 51); font-family: Helvetica; font-size: 12px; font-style: normal; font-variant-ligatures: normal; font-variant-caps: normal; font-weight: 400; letter-spacing: normal; orphans: 2; text-align: center; text-indent: 0px; text-transform: none; widows: 2; word-spacing: 0px; -webkit-text-stroke-width: 0px; white-space: normal; background-color: rgb(251, 251, 251); text-decoration-thickness: initial; text-decoration-style: initial; text-decoration-color: initial; float: none; display: inline !important;&quot;&gt;$$-x_{d/2 + 1}$$&lt;/span&gt;" style="text;html=1;align=center;verticalAlign=middle;whiteSpace=wrap;rounded=0;" vertex="1" parent="1">
          <mxGeometry x="761" y="2675" width="60" height="30" as="geometry" />
        </mxCell>
        <mxCell id="SpaDGzxN2kwc4XPVR8rR-30" value="&lt;span style=&quot;color: rgb(51, 51, 51); font-family: Helvetica; font-size: 12px; font-style: normal; font-variant-ligatures: normal; font-variant-caps: normal; font-weight: 400; letter-spacing: normal; orphans: 2; text-align: center; text-indent: 0px; text-transform: none; widows: 2; word-spacing: 0px; -webkit-text-stroke-width: 0px; white-space: normal; background-color: rgb(251, 251, 251); text-decoration-thickness: initial; text-decoration-style: initial; text-decoration-color: initial; float: none; display: inline !important;&quot;&gt;$$-x_{d/2 + 2}$$&lt;/span&gt;" style="text;html=1;align=center;verticalAlign=middle;whiteSpace=wrap;rounded=0;" vertex="1" parent="1">
          <mxGeometry x="761" y="2707" width="60" height="33" as="geometry" />
        </mxCell>
        <mxCell id="SpaDGzxN2kwc4XPVR8rR-31" value="&lt;span style=&quot;color: rgb(51, 51, 51); font-family: Helvetica; font-size: 12px; font-style: normal; font-variant-ligatures: normal; font-variant-caps: normal; font-weight: 400; letter-spacing: normal; orphans: 2; text-align: center; text-indent: 0px; text-transform: none; widows: 2; word-spacing: 0px; -webkit-text-stroke-width: 0px; white-space: normal; background-color: rgb(251, 251, 251); text-decoration-thickness: initial; text-decoration-style: initial; text-decoration-color: initial; float: none; display: inline !important;&quot;&gt;$$x_{d/2}$$&lt;/span&gt;" style="text;html=1;align=center;verticalAlign=middle;whiteSpace=wrap;rounded=0;" vertex="1" parent="1">
          <mxGeometry x="761" y="3080" width="60" height="30" as="geometry" />
        </mxCell>
        <mxCell id="SpaDGzxN2kwc4XPVR8rR-32" value="&lt;b&gt;...&lt;/b&gt;" style="text;html=1;align=center;verticalAlign=middle;whiteSpace=wrap;rounded=0;fontSize=14;" vertex="1" parent="1">
          <mxGeometry x="760" y="3000" width="60" height="30" as="geometry" />
        </mxCell>
        <mxCell id="SpaDGzxN2kwc4XPVR8rR-33" value="&lt;b&gt;...&lt;/b&gt;" style="text;html=1;align=center;verticalAlign=middle;whiteSpace=wrap;rounded=0;fontSize=14;" vertex="1" parent="1">
          <mxGeometry x="340" y="2780" width="60" height="30" as="geometry" />
        </mxCell>
        <mxCell id="SpaDGzxN2kwc4XPVR8rR-34" value="&lt;b&gt;...&lt;/b&gt;" style="text;html=1;align=center;verticalAlign=middle;whiteSpace=wrap;rounded=0;fontSize=14;" vertex="1" parent="1">
          <mxGeometry x="494" y="2780" width="60" height="30" as="geometry" />
        </mxCell>
        <mxCell id="SpaDGzxN2kwc4XPVR8rR-35" value="&lt;b&gt;...&lt;/b&gt;" style="text;html=1;align=center;verticalAlign=middle;whiteSpace=wrap;rounded=0;fontSize=14;" vertex="1" parent="1">
          <mxGeometry x="761" y="2780" width="60" height="30" as="geometry" />
        </mxCell>
        <mxCell id="SpaDGzxN2kwc4XPVR8rR-36" value="&lt;span style=&quot;color: rgb(51, 51, 51); font-family: Helvetica; font-size: 12px; font-style: normal; font-variant-ligatures: normal; font-variant-caps: normal; font-weight: 400; letter-spacing: normal; orphans: 2; text-align: center; text-indent: 0px; text-transform: none; widows: 2; word-spacing: 0px; -webkit-text-stroke-width: 0px; white-space: normal; background-color: rgb(251, 251, 251); text-decoration-thickness: initial; text-decoration-style: initial; text-decoration-color: initial; float: none; display: inline !important;&quot;&gt;$$x_d$$&lt;/span&gt;" style="text;html=1;align=center;verticalAlign=middle;whiteSpace=wrap;rounded=0;" vertex="1" parent="1">
          <mxGeometry x="344" y="3080" width="60" height="30" as="geometry" />
        </mxCell>
        <mxCell id="SpaDGzxN2kwc4XPVR8rR-38" value="&lt;b&gt;...&lt;/b&gt;" style="text;html=1;align=center;verticalAlign=middle;whiteSpace=wrap;rounded=0;fontSize=14;" vertex="1" parent="1">
          <mxGeometry x="344" y="3000" width="60" height="30" as="geometry" />
        </mxCell>
        <mxCell id="SpaDGzxN2kwc4XPVR8rR-39" value="&lt;span style=&quot;color: rgb(0, 0, 0); font-family: Helvetica; font-size: 12px; font-style: normal; font-variant-ligatures: normal; font-variant-caps: normal; font-weight: 400; letter-spacing: normal; orphans: 2; text-align: center; text-indent: 0px; text-transform: none; widows: 2; word-spacing: 0px; -webkit-text-stroke-width: 0px; white-space: normal; background-color: rgb(251, 251, 251); text-decoration-thickness: initial; text-decoration-style: initial; text-decoration-color: initial; float: none; display: inline !important;&quot;&gt;$$cos(m \theta_{d/2})$$&lt;/span&gt;" style="text;whiteSpace=wrap;html=1;" vertex="1" parent="1">
          <mxGeometry x="499" y="3070" width="90" height="40" as="geometry" />
        </mxCell>
        <mxCell id="SpaDGzxN2kwc4XPVR8rR-40" value="&lt;b&gt;...&lt;/b&gt;" style="text;html=1;align=center;verticalAlign=middle;whiteSpace=wrap;rounded=0;fontSize=14;" vertex="1" parent="1">
          <mxGeometry x="490" y="3000" width="60" height="30" as="geometry" />
        </mxCell>
        <mxCell id="SpaDGzxN2kwc4XPVR8rR-42" value="" style="shape=curlyBracket;whiteSpace=wrap;html=1;rounded=1;labelPosition=left;verticalLabelPosition=middle;align=right;verticalAlign=middle;" vertex="1" parent="1">
          <mxGeometry x="890" y="2670" width="20" height="450" as="geometry" />
        </mxCell>
        <mxCell id="SpaDGzxN2kwc4XPVR8rR-43" value="&lt;span style=&quot;color: rgb(0, 0, 0); font-family: Helvetica; font-size: 12px; font-style: normal; font-variant-ligatures: normal; font-variant-caps: normal; font-weight: 400; letter-spacing: normal; orphans: 2; text-align: center; text-indent: 0px; text-transform: none; widows: 2; word-spacing: 0px; -webkit-text-stroke-width: 0px; white-space: normal; background-color: rgb(251, 251, 251); text-decoration-thickness: initial; text-decoration-style: initial; text-decoration-color: initial; float: none; display: inline !important;&quot;&gt;$$cos(m \theta_1)$$&lt;/span&gt;" style="text;whiteSpace=wrap;html=1;" vertex="1" parent="1">
          <mxGeometry x="914" y="2665" width="90" height="40" as="geometry" />
        </mxCell>
        <mxCell id="SpaDGzxN2kwc4XPVR8rR-44" value="&lt;span style=&quot;color: rgb(0, 0, 0); font-family: Helvetica; font-size: 12px; font-style: normal; font-variant-ligatures: normal; font-variant-caps: normal; font-weight: 400; letter-spacing: normal; orphans: 2; text-align: center; text-indent: 0px; text-transform: none; widows: 2; word-spacing: 0px; -webkit-text-stroke-width: 0px; white-space: normal; background-color: rgb(251, 251, 251); text-decoration-thickness: initial; text-decoration-style: initial; text-decoration-color: initial; float: none; display: inline !important;&quot;&gt;$$cos(m \theta_2)$$&lt;/span&gt;" style="text;whiteSpace=wrap;html=1;" vertex="1" parent="1">
          <mxGeometry x="914" y="2700" width="90" height="40" as="geometry" />
        </mxCell>
        <mxCell id="SpaDGzxN2kwc4XPVR8rR-45" value="&lt;span style=&quot;color: rgb(0, 0, 0); font-family: Helvetica; font-size: 12px; font-style: normal; font-variant-ligatures: normal; font-variant-caps: normal; font-weight: 400; letter-spacing: normal; orphans: 2; text-align: center; text-indent: 0px; text-transform: none; widows: 2; word-spacing: 0px; -webkit-text-stroke-width: 0px; white-space: normal; background-color: rgb(251, 251, 251); text-decoration-thickness: initial; text-decoration-style: initial; text-decoration-color: initial; float: none; display: inline !important;&quot;&gt;$$cos(m \theta_1)$$&lt;/span&gt;" style="text;whiteSpace=wrap;html=1;" vertex="1" parent="1">
          <mxGeometry x="910" y="2880" width="90" height="40" as="geometry" />
        </mxCell>
        <mxCell id="SpaDGzxN2kwc4XPVR8rR-46" value="&lt;span style=&quot;color: rgb(0, 0, 0); font-family: Helvetica; font-size: 12px; font-style: normal; font-variant-ligatures: normal; font-variant-caps: normal; font-weight: 400; letter-spacing: normal; orphans: 2; text-align: center; text-indent: 0px; text-transform: none; widows: 2; word-spacing: 0px; -webkit-text-stroke-width: 0px; white-space: normal; background-color: rgb(251, 251, 251); text-decoration-thickness: initial; text-decoration-style: initial; text-decoration-color: initial; float: none; display: inline !important;&quot;&gt;$$cos(m \theta_2)$$&lt;/span&gt;" style="text;whiteSpace=wrap;html=1;" vertex="1" parent="1">
          <mxGeometry x="910" y="2915" width="90" height="40" as="geometry" />
        </mxCell>
        <mxCell id="SpaDGzxN2kwc4XPVR8rR-47" value="&lt;span style=&quot;color: rgb(0, 0, 0); font-family: Helvetica; font-size: 12px; font-style: normal; font-variant-ligatures: normal; font-variant-caps: normal; font-weight: 400; letter-spacing: normal; orphans: 2; text-align: center; text-indent: 0px; text-transform: none; widows: 2; word-spacing: 0px; -webkit-text-stroke-width: 0px; white-space: normal; background-color: rgb(251, 251, 251); text-decoration-thickness: initial; text-decoration-style: initial; text-decoration-color: initial; float: none; display: inline !important;&quot;&gt;$$cos(m \theta_{d/2})$$&lt;/span&gt;" style="text;whiteSpace=wrap;html=1;" vertex="1" parent="1">
          <mxGeometry x="910" y="2845" width="90" height="40" as="geometry" />
        </mxCell>
        <mxCell id="SpaDGzxN2kwc4XPVR8rR-48" value="" style="shape=curlyBracket;whiteSpace=wrap;html=1;rounded=1;flipH=1;labelPosition=right;verticalLabelPosition=middle;align=left;verticalAlign=middle;" vertex="1" parent="1">
          <mxGeometry x="984" y="2670" width="30" height="450" as="geometry" />
        </mxCell>
        <mxCell id="SpaDGzxN2kwc4XPVR8rR-49" value="&lt;b&gt;...&lt;/b&gt;" style="text;html=1;align=center;verticalAlign=middle;whiteSpace=wrap;rounded=0;fontSize=14;" vertex="1" parent="1">
          <mxGeometry x="914" y="2780" width="60" height="30" as="geometry" />
        </mxCell>
        <mxCell id="SpaDGzxN2kwc4XPVR8rR-50" value="&lt;span style=&quot;color: rgb(0, 0, 0); font-family: Helvetica; font-size: 12px; font-style: normal; font-variant-ligatures: normal; font-variant-caps: normal; font-weight: 400; letter-spacing: normal; orphans: 2; text-align: center; text-indent: 0px; text-transform: none; widows: 2; word-spacing: 0px; -webkit-text-stroke-width: 0px; white-space: normal; background-color: rgb(251, 251, 251); text-decoration-thickness: initial; text-decoration-style: initial; text-decoration-color: initial; float: none; display: inline !important;&quot;&gt;$$cos(m \theta_{d/2})$$&lt;/span&gt;" style="text;whiteSpace=wrap;html=1;" vertex="1" parent="1">
          <mxGeometry x="919" y="3070" width="90" height="40" as="geometry" />
        </mxCell>
        <mxCell id="SpaDGzxN2kwc4XPVR8rR-51" value="&lt;b&gt;...&lt;/b&gt;" style="text;html=1;align=center;verticalAlign=middle;whiteSpace=wrap;rounded=0;fontSize=14;" vertex="1" parent="1">
          <mxGeometry x="910" y="3000" width="60" height="30" as="geometry" />
        </mxCell>
        <mxCell id="SpaDGzxN2kwc4XPVR8rR-52" value="+" style="text;html=1;align=center;verticalAlign=middle;whiteSpace=wrap;rounded=0;fontSize=22;" vertex="1" parent="1">
          <mxGeometry x="630" y="2880" width="60" height="30" as="geometry" />
        </mxCell>
        <mxCell id="SpaDGzxN2kwc4XPVR8rR-53" value="*" style="text;html=1;align=center;verticalAlign=middle;whiteSpace=wrap;rounded=0;fontSize=20;" vertex="1" parent="1">
          <mxGeometry x="840" y="2888" width="60" height="30" as="geometry" />
        </mxCell>
        <mxCell id="SpaDGzxN2kwc4XPVR8rR-54" value="*" style="text;html=1;align=center;verticalAlign=middle;whiteSpace=wrap;rounded=0;fontSize=20;" vertex="1" parent="1">
          <mxGeometry x="421" y="2885" width="60" height="30" as="geometry" />
        </mxCell>
      </root>
    </mxGraphModel>
  </diagram>
</mxfile>
